/* XPM */
static char *_909199ecf394ff7c038244003ad6df8j37CcjWRwzlHblf7[] = {
/* columns rows colors chars-per-pixel */
"32 32 2 1 ",
"  c #3A4556",
". c #321933",
/* pixels */
"................................",
".      ..........             ..",
".     ..........             ...",
".    ..........             ....",
".   ..........             .....",
".  ..........             ......",
". ..........             .......",
"...........             ........",
"..........             .........",
".........             ..........",
"........             ......... .",
".......             .........  .",
"......             .........   .",
".....             .........    .",
"....             .........    ..",
"...             .........    ...",
"..             .........    ....",
".             .........    .....",
".            .........    ......",
".           .........    ..... .",
".          .........    .....  .",
".         .........    .....   .",
".        .........    .....    .",
".       .........    .....     .",
".      .........    .....      .",
".     .........    .....       .",
".    .........    .....        .",
".   .........    .....         .",
".  .........    .....         ..",
". .........    .....         ...",
"..........    .....         ....",
"................................"
};
