/* XPM */
static char *_de2ef9792134edaeefdaf2af3580025Aq0XS8DliJ8CxUdD[] = {
/* columns rows colors chars-per-pixel */
"32 32 5 1 ",
"  c #38002C",
". c black",
"X c #222A5C",
"o c #566A89",
"O c #8BABBF",
/* pixels */
"................................",
".oOOOOOOoooOOOOOOoOOOoooOOOOOOO.",
".OOOOOOOOOOOOOOOOOOOOOOOOOOOOOO.",
".OOOOOOOOOOOoOOOoOOOOOOOOOOOOOO.",
".oooOOOOOOOoOOOOOOoOOOoOOOOOOOo.",
".oOOOooooooXOOOOOOooooooooooOOO.",
".OOOOoooOOOoooooOoOOOooOOOoOOOO.",
".OOOoOOooooXooooXXOOOXOOOOoOOOo.",
".OOOXOOooooXooooXXoooXOOOoooooo.",
".OOOXooooooXooooooooooXooOOoOOO.",
".oOOOoooXXXXXoooooooooXooOOoOOO.",
".OOXXXXXXooooXooXoooXXXXXXXoOOO.",
".OOXoooXXooooXXoXXXXXoooXoOooOO.",
".oOOOoooXXXXXXXXXXXXXoooXoOoOOo.",
".OOOOXXXXXooXXooXXXX  XXXoooOOO.",
".OOOoooooXoooXXXXXXXX XooXooOOO.",
".OOOoOOoooXooXXXXXXXX      oOOO.",
".OOOoOOooooXXXXX XXXXXXooOOoOOO.",
".OOOOooooooXXXXXXXXXXXoooOOOOOO.",
".OOOOooooooXXXXXXXXXXXoooooOOOO.",
".OOOOooooooX X  XXXXXXoooooOOOo.",
".oOOOXXXXXXXXXXXXXXXXXXXXXXOOOO.",
".OOOoOOoXooooXXXXXXooooXoOOoOOO.",
".OOOooooXooooXXXXXXooooXooooOOO.",
".OooooooXXXXXX    XXXXXXooooooO.",
".OOXXXXXoooXXXXXXXXXXoooXXXXXOO.",
".OOooXXoooXXXXXXXXXXXXoooXXooOO.",
".ooooOOOXXXXXXXXXXXXXXXXOOOoooo.",
".OOOOXoooXoooXXXXXXoooXoooXOOOO.",
".OOOOOoooXoooXXXXXXoooXoooOOOOO.",
".OOOOOoooXXXX X  X XXXXoooOOOOO.",
".OOOOOXXXXXXoooXXoooXXXXXXOOOOO."
};
