/* XPM */
static char *d238025ae0dd48f686c730b46912d8a0JcAxcSS2jOIiKOA8[] = {
/* columns rows colors chars-per-pixel */
"32 32 195 2 ",
"   c #37181E",
".  c #1F1D2A",
"X  c #221C28",
"o  c #2B2936",
"O  c #312632",
"+  c #362934",
"@  c #382B35",
"#  c #392D38",
"$  c #38313E",
"%  c #430404",
"&  c #4A0403",
"*  c #4C0809",
"=  c #540403",
"-  c #5C0301",
";  c #420B10",
":  c #560F11",
">  c #481519",
",  c #5C1B1E",
"<  c #640606",
"1  c #690A07",
"2  c #650D0C",
"3  c #720F0B",
"4  c #61100C",
"5  c #6F140F",
"6  c #77140E",
"7  c #641311",
"8  c #6D1513",
"9  c #661D1E",
"0  c #7B1611",
"q  c #7B1A15",
"w  c #751B18",
"e  c #74221E",
"r  c #7E231E",
"t  c #531E26",
"y  c #46252D",
"u  c #54252A",
"i  c #572B2C",
"p  c #5A2E35",
"a  c #4E343F",
"s  c #553339",
"d  c #5B313B",
"f  c #642122",
"g  c #6B2424",
"h  c #6C2B2F",
"j  c #762724",
"k  c #782E2F",
"l  c #6E2F34",
"z  c #68373C",
"x  c #773335",
"c  c #7C3935",
"v  c #723E3E",
"b  c #7A3C3C",
"n  c #353341",
"m  c #3B3744",
"M  c #3E3943",
"N  c #413D4C",
"B  c #5B3D43",
"V  c #653E45",
"C  c #44434E",
"Z  c #5A4047",
"A  c #5B434A",
"S  c #464552",
"D  c #494753",
"F  c #4B4956",
"G  c #4D4B59",
"H  c #544B57",
"J  c #5D4B54",
"K  c #544E5D",
"L  c #5E4958",
"P  c #6B4142",
"I  c #654349",
"U  c #754549",
"Y  c #78494B",
"T  c #6A4D52",
"R  c #66555D",
"E  c #69515C",
"W  c #7B5155",
"Q  c #74565A",
"!  c #7D555B",
"~  c #565461",
"^  c #5B5966",
"/  c #5E5B6A",
"(  c #645462",
")  c #625C67",
"_  c #6C5A65",
"`  c #625E6D",
"'  c #765D66",
"]  c #63626E",
"[  c #6A6069",
"{  c #796A6F",
"}  c #666373",
"|  c #6A6674",
" . c #6C6975",
".. c #6A6778",
"X. c #6D6B7A",
"o. c #766874",
"O. c #706D7D",
"+. c #74727E",
"@. c #78777D",
"#. c #811D15",
"$. c #821E19",
"%. c #84231D",
"&. c #89241D",
"*. c #902A1C",
"=. c #8A2721",
"-. c #832924",
";. c #872A25",
":. c #8D2B23",
">. c #922D25",
",. c #942E29",
"<. c #8B332F",
"1. c #953127",
"2. c #95322A",
"3. c #9C352D",
"4. c #953A2B",
"5. c #9C392F",
"6. c #9E3630",
"7. c #9B3A31",
"8. c #A23C2F",
"9. c #A33C34",
"0. c #8A463D",
"q. c #944235",
"w. c #93473A",
"e. c #A44235",
"r. c #A94537",
"t. c #A94239",
"y. c #AE483E",
"u. c #8B4744",
"i. c #9B4A42",
"p. c #8F504B",
"a. c #91524D",
"s. c #874E52",
"d. c #82595D",
"f. c #8C5B5C",
"g. c #975A53",
"h. c #A54B42",
"j. c #B24C42",
"k. c #A2544A",
"l. c #B75145",
"z. c #B55348",
"x. c #BC564C",
"c. c #BE594A",
"v. c #AB5C57",
"b. c #B95A51",
"n. c #8B6465",
"m. c #8E6569",
"M. c #986569",
"N. c #826C73",
"B. c #8B6F73",
"V. c #857174",
"C. c #A06C6E",
"Z. c #A16E71",
"A. c #A47074",
"S. c #C05A4C",
"D. c #C76558",
"F. c #C96A5C",
"G. c #D06C60",
"H. c #D7776B",
"J. c #716D80",
"K. c #767483",
"L. c #797685",
"P. c #7B7986",
"I. c #767588",
"U. c #7B7789",
"Y. c #7E7B8A",
"T. c #867982",
"R. c #817D8D",
"E. c #827F90",
"W. c #83818E",
"Q. c #8A848C",
"!. c #8A898E",
"~. c #868392",
"^. c #898695",
"/. c #8B8996",
"(. c #8D8B99",
"). c #908F97",
"_. c #908E9B",
"`. c #94929D",
"'. c #99969C",
"]. c #A09494",
"[. c #A3949A",
"{. c #9694A1",
"}. c #9896A2",
"|. c #9D9CA5",
" X c #9E9CA9",
".X c #A29CA5",
"XX c #B29DA4",
"oX c #A7A2A6",
"OX c #A7A6AA",
"+X c #A6A4B1",
"@X c #A8A6B1",
"#X c #ADACB3",
"$X c #B5B4B8",
"%X c #B8B6C3",
"&X c #BBB9C3",
/* pixels */
"L.{.L.U.^.~.Y.OX^.^.^.W.J.K.^.^.^.^.Y.b =.>.,.3.6.& ;.3.&.3.8.&.",
"L._.^.^.~.J.| Y._./.^.Y.O.K.(.^.^.Y...l ,.8.8.3.>.* :.3.6.3.=.3 ",
"W.F L.W.| B 4.O K W. .# u b _ W.Y.~ n n > r 3.7 % ].k 2 :.%.& . ",
"^.W.~ M ; e.7.2.* # P c.D.S.c.b M m } U.R.C ; B.OX}.&X_.: X ^.U.",
"^._.R.@ =.6 6.t.3.0 >.t.t.9.9.&.A. X~.~.(.^.U.E.R.~.^.^.] } / ^.",
"U.^.R.@ 7.3.:.3.>.0 >.3.8.8.2.%.M. X^.R.E.#X(.^.^.^.^.^.U.} ~.^.",
"^.^.J.@ ,.7.5.3.&.3 =.9.3.,.=.6 M. X(.^.R.X.O.^.(.^.^.W.J./ ^.^.",
"~.K.~ H 9 4.2.%.e , 9 j >.>.;.k I ] Y.P.X.J A ( T.~.P.[ I B X.E.",
"R.) '.%XT.g g u G `.+.a g g Q @X.X .K A Z w.8.7 p ( B r.r.8.s B ",
").#X(.`.(.~.~.|.~.(./.L.` | ^.R.(.|.).a.S.j.9.9.3.% 4.t.t.e.G.*.",
"I.(.~.^./.^.K.$X~.~.^.K./ J.^.^.^./.+.l :.1.2.6.6.& ;.3.2.3.9.0 ",
"I._.Y.^.^.~.L.'./.^.^.W.J.J.^.^.~.R.R.b >.,.3.3.7.& ;.3.>.3.1.#.",
"Y.K.W.^.R.o.! ` P./.E.| ( ' K.^./.K.K.I e 2.3.=.w v -.>.3.1.5 , ",
"~.) P.| I v 5.u B L._ Y u.i.f.N.| D | } V g w x Y [.M.s.%.9 z F ",
"^.(.R.$ 4 :.3.,.9 z c j.x.x.j.k E ] O.R.^.( d T.'._.@X(.p M @.R.",
"W._.W.+ *.$.2.9.3.0 >.9.9.9.9.=.Z..X~.W./.}.~.W.~.~.^.^...} X.^.",
"R.^.W.@ 6.3.1.5.>.0 >.9.3.3.>.%.Z.+X(.W.R.{.E././.^.^.^.P.} ~.^.",
"^.^./ + q 9.9.3.&.- 0 3.3.2.%.< U ^.(.(.R.` ` K.^.^.^.~./ ~ ~.(.",
"Y.^ @.Q.U q q 7 i W V f q %.x m.V.^ / / H V V i _ U.` f.g.b D } ",
"(.!.}.+X^.! Q Q } `.P.( d.n.{ `.}.Q.+.W p.j.9.-.k p v r.l.t.a.b ",
"W.|.(.(.(.^.K.#X~.~.^.K.} R.^.~.^.'.R.V t.t.9.3.5.% 1.9.9.9.x.#.",
"L.(.Y.Y.^.~.P.#X~.~.^.Y.} I.^.^.~.^.I.x *.1.3.6.5.& :.3.:.3.6.$.",
"L.{.~.~.^.~.O.(.(.^.^.W.J.U.(.^.^.R.P.b 1.9.3.3.3.& :.3.2.3.:.0 ",
"Y.^ U.^.P.J 0.y | (.L.G B Y ..^.~.` +.R 7 :.3.3 = B.e 6 3.:.= y ",
"(.L.Y.H > q.3.8 t / T k.b.z.v.s.S m ] P.o.B : ! [..XXXB.2   N...",
"^.`.Y.# r q 5.3.,.9 <.r.j.h.t.;.m.^.U.~._.K.^ R./.(.`.`.L ~ ] E.",
"R.^.~.@ 3.>.:.3.,.0 >.6.8.8.6.$.s.~.^.R.W.R.I.E.^.^.^.(.I.} Y.^.",
"~.^.R.@ 3.3.3.3.>.0 2.9.3.,.=.#.C.+X(.~.R.^ ..(.^./.^.^.I...^.^.",
"^.~.D @ < t.t.9.#.& 1 >.3.3.q = u O._.(.Y.G F ~ ~./.^.R.G S ~.{.",
"F S '.$X{ & - % N Q._ > 1 5 v oX.X~ N C o c 5.:.A X.F i.F.7.X S ",
"'.$X{.{.`.Q.Q.Q.R._.(.L.Q.'.!.W.(.oX`.g.D.x.t.9.2.* 4.r.y.t.H.3.",
"I.^.^.^.^.R.O.&XE.Y.^.O.K +.~.~.^._.K.h >.3.3.3.0 % :.3.3.3.3.6 "
};
