/* XPM */
static char *_64_be85fbdd08fc26428a969867ab1c2a16dc1a0f265dc98a41c23b76dd39b441ca[] = {
/* columns rows colors chars-per-pixel */
"64 64 256 2 ",
"   c black",
".  c #0000A8",
"X  c #00A800",
"o  c #00A8A8",
"O  c #A80000",
"+  c #A800A8",
"@  c #A85400",
"#  c gray66",
"$  c gray33",
"%  c #5454FC",
"&  c #54FC54",
"*  c #54FCFC",
"=  c #FC5454",
"-  c #FC54FC",
";  c #FCFC54",
":  c gray99",
">  c #ECECEC",
",  c gainsboro",
"<  c #D0D0D0",
"1  c #C0C0C0",
"2  c #B4B4B4",
"3  c gray66",
"4  c #989898",
"5  c gray55",
"6  c #7C7C7C",
"7  c gray44",
"8  c #646464",
"9  c gray33",
"0  c #484848",
"q  c gray22",
"w  c #2C2C2C",
"e  c #202020",
"r  c #FC0000",
"t  c #EC0000",
"y  c #E00000",
"u  c #D40000",
"i  c #C80000",
"p  c #BC0000",
"a  c #B00000",
"s  c #A40000",
"d  c #980000",
"f  c #880000",
"g  c #7C0000",
"h  c #700000",
"j  c #640000",
"k  c #580000",
"l  c #4C0000",
"z  c #400000",
"x  c #FCD8D8",
"c  c #FCB8B8",
"v  c #FC9C9C",
"b  c #FC7C7C",
"n  c #FC5C5C",
"m  c #FC4040",
"M  c #FC2020",
"N  c #FC0000",
"B  c #FCA85C",
"V  c #FC9840",
"C  c #FC8820",
"Z  c #FC7800",
"A  c #E46C00",
"S  c #CC6000",
"D  c #B45400",
"F  c #9C4C00",
"G  c #FCFCD8",
"H  c #FCFCB8",
"J  c #FCFC9C",
"K  c #FCFC7C",
"L  c #FCF85C",
"P  c #FCF440",
"I  c #FCF420",
"U  c #FCF400",
"Y  c #E4D800",
"T  c #CCC400",
"R  c #B4AC00",
"E  c #9C9C00",
"W  c #848400",
"Q  c #706C00",
"!  c #585400",
"~  c #404000",
"^  c #D0FC5C",
"/  c #C4FC40",
"(  c #B4FC20",
")  c #A0FC00",
"_  c #90E400",
"`  c #80CC00",
"'  c #74B400",
"]  c #609C00",
"[  c #D8FCD8",
"{  c #BCFCB8",
"}  c #9CFC9C",
"|  c #80FC7C",
" . c #60FC5C",
".. c #40FC40",
"X. c #20FC20",
"o. c #00FC00",
"O. c #00FC00",
"+. c #00EC00",
"@. c #00E000",
"#. c #00D400",
"$. c #04C800",
"%. c #04BC00",
"&. c #04B000",
"*. c #04A400",
"=. c #049800",
"-. c #048800",
";. c #047C00",
":. c #047000",
">. c #046400",
",. c #045800",
"<. c #044C00",
"1. c #044000",
"2. c #D8FCFC",
"3. c #B8FCFC",
"4. c #9CFCFC",
"5. c #7CFCF8",
"6. c #5CFCFC",
"7. c #40FCFC",
"8. c #20FCFC",
"9. c #00FCFC",
"0. c #00E4E4",
"q. c #00CCCC",
"w. c #00B4B4",
"e. c #009C9C",
"r. c #008484",
"t. c #007070",
"y. c #005858",
"u. c #004040",
"i. c #5CBCFC",
"p. c #40B0FC",
"a. c #20A8FC",
"s. c #009CFC",
"d. c #008CE4",
"f. c #007CCC",
"g. c #006CB4",
"h. c #005C9C",
"j. c #D8D8FC",
"k. c #B8BCFC",
"l. c #9C9CFC",
"z. c #7C80FC",
"x. c #5C60FC",
"c. c #4040FC",
"v. c #2024FC",
"b. c #0004FC",
"n. c #0000FC",
"m. c #0000EC",
"M. c #0000E0",
"N. c #0000D4",
"B. c #0000C8",
"V. c #0000BC",
"C. c #0000B0",
"Z. c #0000A4",
"A. c #000098",
"S. c #000088",
"D. c #00007C",
"F. c #000070",
"G. c #000064",
"H. c #000058",
"J. c #00004C",
"K. c #000040",
"L. c #282828",
"P. c #FCE034",
"I. c #FCD424",
"U. c #FCCC18",
"Y. c #FCC008",
"T. c #FCB400",
"R. c #B420FC",
"E. c #A800FC",
"W. c #9800E4",
"Q. c #8000CC",
"!. c #7400B4",
"~. c #60009C",
"^. c #500084",
"/. c #440070",
"(. c #340058",
"). c #280040",
"_. c #FCD8FC",
"`. c #FCB8FC",
"'. c #FC9CFC",
"]. c #FC7CFC",
"[. c #FC5CFC",
"{. c #FC40FC",
"}. c #FC20FC",
"|. c #FC00FC",
" X c #E000E4",
".X c #C800CC",
"XX c #B400B4",
"oX c #9C009C",
"OX c #840084",
"+X c #6C0070",
"@X c #580058",
"#X c #400040",
"$X c #FCE8DC",
"%X c #FCE0D0",
"&X c #FCD8C4",
"*X c #FCD4BC",
"=X c #FCCCB0",
"-X c #FCC4A4",
";X c #FCBC9C",
":X c #FCB890",
">X c #FCB080",
",X c #FCA470",
"<X c #FC9C60",
"1X c #F0945C",
"2X c #E88C58",
"3X c #DC8854",
"4X c #D08050",
"5X c #C87C4C",
"6X c #BC7848",
"7X c #B47044",
"8X c #A86840",
"9X c #A0643C",
"0X c #9C6038",
"qX c #905C34",
"wX c #885830",
"eX c #80502C",
"rX c #744C28",
"tX c #6C4824",
"yX c #5C4020",
"uX c #543C1C",
"iX c #483818",
"pX c #403018",
"aX c #382C14",
"sX c #28200C",
"dX c #600064",
"fX c #006464",
"gX c #006060",
"hX c #00001C",
"jX c #00002C",
"kX c #302410",
"lX c #480048",
"zX c #500050",
"xX c #000034",
"cX c gray11",
"vX c #4C4C4C",
"bX c gray36",
"nX c gray25",
"mX c gray19",
"MX c #343434",
"NX c #D8F4F4",
"BX c #B8E8E8",
"VX c #9CDCDC",
"CX c #74C8C8",
"ZX c #48C0C0",
"AX c #20B4B4",
"SX c #20B0B0",
"DX c #00A4A4",
"FX c #009898",
"GX c #008C8C",
"HX c #008484",
"JX c #007C7C",
"KX c #007878",
"LX c #007474",
"PX c #007070",
"IX c #006C6C",
"UX c #980088",
/* pixels */
"uXuXuXuXyXyXyXyXyXyXuXyXyXuXyXuXtXyXyXuXyXuXyXiXtXyXyXyXyXuXyXuXyXyXyXuXuXiXuXyXyXyXuXuXyXyXyXuXtXyXtXyXyXyXiXyXyXyXyXyXyXyXuXuX",
"tXtXrXtXeXtXrXrXrXtXrXrXrXrXrXtXrXtXeXrXeXrXtXtXeXeXrXeXeXtXtXyXrXtXtXtXyXyXrXtXtXrXrXtXrXrXrXyXrXrXrXrXrXtXtXtXeXeXeXtXrXrXtXtX",
"iXuXuXiXuXiXuXiXiXuXiXiXuXuXyXyXtXuXuXuXyXiXuXiXuXyXyXuXiXiXyXuXtXyXuXiXiXiXiXiXiXuXiXiXuXuXuXiXtXyXuXiXuXiXpXiXuXuXuXiXuXuXyXyX",
"uX2 2 2 2 2 2 2 2 2 2 2 2 2 2 2 2 2 2 2 tXuX2 2 2 2 2 2 2 2 2 2 2 2 2 2 2 2 2 2 2 2 tXuX2 2 2 2 2 2 2 2 2 2 2 2 2 2 2 2 2 2 2 tX",
"uX2 , , , , , , , , , , , , , , , , , , tXuX2 , , , , , , , , , , , , , , , , , , , tXuX2 , , , , , , , , , , , , , , , , , , tX",
"uX2 , 6X7X8X8X8X8X7X7X7X9X9X9X9X9X9X9X9X8X8X9XqXqXqXqXqXqXqXqXqXqXwXqXqXwXqXqXqXqXwXwXeXeXeXeXwXwXwXqXqXwXwXeXrXwXwXeXwX, , , tX",
"uX2 , 9XtXtXtXtXtXyXyXyXtXtXtXtXtXtXtXtXtXtXyXtXyXyXyXyXtXtXtXtXyXyXyXyXyXyXyXuXuXuXuXuXuXuXuXuXuXuXiXpXpXpXpXpXpXpXiXeX# , , tX",
"uX2 , 8XyXrXrXeXwXeXwXwXwXwXeXwXwXwXeXeXeXeXrXeXeXeXrXrXtXtXtXtXtXyXyXyXyXuXuXuXuXuXuXiXiXiXiXiXiXiXiXiXiXuXiXpXpXaXkXwX# , , rX",
"iX2 , 8XyXqXyXyXyXyXyXyXyXyXyXyXyXuXuXyXyXuXyXuXuXuXiXiXiXuXpXuXiXpXpXpXpXaXpXpXpXpXaXaXaXaXkXkXpXpXaXpXpXaXkXaXkXyXkXrX# , , rX",
"uX2 , 9XuXwXrXwXuXpXeXrXpXwXrXpXiXiXiXuXuXuXuXuXiXiXiXiXiXpXiXiXiXpXpXpXpXpXpXpXpXpXaXaXaXkXkXaXeXyXpXwXyXkXyXtXiXyXkXeX# , , rX",
"uX2 , 9XyXqXrX7XwXuXuXeXiXrXtXwX9X9X9X9X8X8XqXqXqXqXqXqXqXqX9X9X0XwXqXwXqXqXqXwXwXwXqXwXwXeXwXrXeXtXyXqXuXtXqXwXuXyXkXrX# , , tX",
"uXtXrX9XyXqXuXeXqXyXaXrXiXyXtXyXyXyXtXtXyXyXyXyXuXyXyXtXtXtXtXyXyXyXyXyXyXyXyXuXyXyXyXyXuXuXuXuXtXyXuXtXiXrXqXwXpXyXkXeXtXeXrXtX",
"uXuXuX9XyXwXaXuXrXwXpXpXiXpXuXiXiXiXiXpXpXpXpXpXpXpXpXpXpXpXpXpXaXkXkXkXkXkXsXsXsXsXsXsXsXsXsXsXaXaXkXaXaXtXrXyXsXyXkXeXyXyXuXrX",
"uX2 2 8XyXwXiXiXaXiXg.g.f.z.z.i.l.l.k.l.l.l.k.z.l.VX5 5 4 8 ZXx.x.x.x.f.g.g.g.g.g.g.g.g.g.g.g.g.g.g.g.g.g.pXiXyXkXuXkXwX5 2 2 rX",
"uX2 , 8XyXwXtXqXtXpXg.g.x.x.p.z.i.l.l.i.0 5 l.VX4 5 1 , > < 6 x.p.x.x.f.g.g.g.g.g.g.g.g.g.g.g.g.g.g.g.g.g.pXeXwXuXyXkXeX# , , tX",
"uX2 , 9XuXqXpXrXqXuXx.x.z.z.i.z.x.z.p.g.hX  7 8 8 1 > 5 4 < 1 SXf.f.f.g.f.g.g.g.g.g.g.g.g.g.g.g.g.g.g.g.g.yXwXeXaXuXkXeX# , , rX",
"yX2 , qXuXqXpXiXpXiXg.f.p.ZXi.p.p.z.x.0       cX0 7 4 6 bX2 , 8 g.f.g.g.f.f.g.g.g.g.g.g.g.g.g.g.g.g.g.f.f.kXiXiXsXyXkXrX# , , tX",
"uX2 , qXyXwXtXwXrXiXg.g.f.f.f.f.f.CX8                 cXq $ 7 bX8 x.f.f.f.f.f.f.f.f.f.f.f.f.f.f.f.f.f.f.f.uXrXrXiXyXkXeX# , , yX",
"yX2 , 9XyXeXuXeXeXuXf.g.f.f.g.g.fX$ hX                        w nXbX5 CXCXZXg.f.f.f.f.f.f.f.f.f.f.f.f.f.f.pXtXrXuXyXaXwX# , , tX",
"uX2 , 8XyXeXpXrXyXiXp.f.f.f.f.g.hX                            $         cXcXy.f.x.x.f.f.f.x.x.x.x.f.f.f.x.sXuXyXsXyXaXeX# , , tX",
"uX2 , 8XuXwXpXwXrXiXi.ZXp.f.x.h.          hX          hX      7 cX        y.SXZXp.p.x.x.x.x.x.x.x.ZXf.p.p.sXtXeXsXyXkXeX# , , tX",
"uXrXrXqXuXwXpXqXeXiXi.p.p.ZXZXu.            hXhX            cX8 e       h.x.ZXp.i.p.p.x.x.x.p.p.p.p.i.l.l.aXrXeXaXyXaXrXrXrXtXtX",
"iXyXyXqXuXwXpXqXrXiXp.p.ZXh.hX    hX  cXhXL.1 2 5 < L.q 6 2 6 8 $ $ hX  nXZXp.i.i.i.i.i.i.i.VXBXj.j.NXNXj.kXeXwXaXtXaXeXyXyXuXrX",
"iX2 2 9XuXwXpXwXrXiXp.p.i.z.g.h.e 7 cXhX0 7 bX8 6 1 6 2 1 5 # > 1 8 vXcX$ i.i.i.i.i.i.i.i.VXk.BXj.NXNXNXj.aXtXeXpXtXpXeX5 2 2 tX",
"iX2 , 9XyXrXpXwXrXpXi.i.CXl.l.g.e bXvX    cX$ 6 4 2 1 4 4 1 , : > , # $ CXi.i.i.i.i.i.i.VXk.BXj.NXNX2.NXj.aXtXwXpXyXpXwX# , , tX",
"uX2 , 9XuXwXpXeXrXpXi.i.VXl.bXL.MXq cX      $ # 1 4 6 < 1 2 , 1 < 1 < 5 8 CXi.i.i.i.i.i.l.VXk.BXNXNX2.: : aXrXqXpXyXpXwX# , , rX",
"uX2 , 9XuXrXpXeXrXpXi.i.CXCX6 q L.cXhX  q 6 2 5 6 1 2 2 , > > > > > 2 1 4 8 CXCXCXl.l.l.l.VXBXNXNX2.NX: 2.pXrXeXpXtXpXeX# , , eX",
"uX2 , qXiXrXpXwXeXiXi.i.VXk.k.6 cX  cX0 6 7 q nX# 4 1 : > , q 5 5 2 > 1 1 4 bX$ mXk.k.k.k.BXj.j.BXNXj.NXNXpXtXeXpXtXpXeX# , , eX",
"uX2 , wXuXeXpXwXeXiXl.CXk.VX4 cX        e nX7 7 8 6 8 8 5 5 nX5 $ q 1 : 1 # 2 bXvXBXBXBXBXBXj.BXBXNXNXNXBXpXtXeXpXtXpXwX# , , tX",
"uX2 , qXuXrXpXwXrXpXl.CXk.# cX                cXe q $ 8 6 6 7 7 7 0 4 1 , < 1 4 $ : : NXNXNXj.BXBXj.j.j.BXpXrXeXpXrXpXwX# , , rX",
"uX2 , qXuXrXaXwXeXpXk.CX# L.hX        hXcXhX                cX0 8 7 8 6 6 6 6 7 q 4 > : > NXNXj.BXj.j.BXBXpXrXwXiXtXiXqX# , , tX",
"uXtXrXqXpXrXaXwXeXpXBXbX# e         hX7 2 2 L.hXw bX$ mX  hX    cXMXe nXcX      cXw nX$ 8 $ 8 j.NXj.j.j.NXpXrXwXpXyXpXwXtXeXrXeX",
"yXuXuXqXpXtXaXrXtXaX2 cX4 MX  cXcXq L.$ vXbXMXcXvX4 5 7   e   mX8 8 $ 0 MXhXhX          hX$ 1 : NXNXBXBXj.pXrXeXpXrXpXwXyXyXuXrX",
"yX2 2 qXpXyXkXeXtXaX6 mX< 7 e hXL.7 5 # # 5 bX$ nXnXvXvXhXL.cX5 5 0 q $ nXvXvXcXcXe e nX2 > : 2.2.j.BXBXBXpXrXwXiXtXiXqX5 2 2 rX",
"uX2 , qXpXyXaXeXrXaXbXbX5 # L.      cXL.0 bX4 # 1 1 1 4 6 8 7 8 $ 6 6 5 8 0 8 mXe 8 4 > : : : > 2.NXNXNXNXpXrXwXpXyXpXwX# , , rX",
"uX2 , qXpXtXkXrXrXkXq 0 bXL.                      cXmX7 5 4 4 < > 1 > > 2 2 bXvXe bX5 , > : : : 2.2.NXNX: pXrXwXpXtXpXwX# , , tX",
"uX2 , wXpXtXaXeXrXaXnX$ cX          hX            e nX6 4 4 1 > , # > , , < > 4 $ 4 7 8 6 2 , : : : > NX: pXrXeXiXtXpXeX# , , tX",
"uX2 , wXaXtXaXeXrXaX0 L.        hX$ $ cX      L.nXbX6 5 # , > 5 1 < 2 $X4 4 , 1 5 bX8 5 4 # # 2 < , < : : pXtXrXiXrXpXwX# , , tX",
"uX2 , wXaXyXkXeXtXkXnXhX          6 # bXcXcX0 7 6 5 4 1 2 1 4 > > > 1 4 > > 4 6 > bXcX      cXL.q 0 0 > NXpXrXwXiXrXpXwX# , , tX",
"uX2 , wXaXyXkXrXtXkX    0     hXhX6 1 4 7 $ 4 5 5 1 > < 4 1 > 5 6 4 # 1 , > > 1 6 4 8 e           L.6 > NXpXrXwXuXtXpXqX# , , tX",
"uX2 , wXaXyXkXtXtXkX  hX7 8 8 vXbX6 5 6 0 mX< 1 4 4 , > > > > < 5 1 # 4 2 8 < 7 $X5 2 , 6 0 vX4 : : : : , pXeXqXiXrXpXqX# , , tX",
"uXtXrXwXkXyXkXrXrXkX  e MXe 8 5 6 6 0 L.w 6 0 8 2 1 1 2 # 2 1 < , < < < 1 1 1 1 $X> # 4 2 6 $ $ , : > < # iXrXeXiXeXpXqXrXrXtXtX",
"uXuXuXeXkXyXkXeXrXkX  w cXcX  cXmXvX8 7 6 5 4 5 4 # # 2 2 2 2 6 # 2 2 2 # 2 2 2 1 , > < 5 , 4 q $ 5 bXyX# pXrXwXiXrXpXqXyXyXuXtX",
"uX2 2 eXkXyXkXeXrXsXhXe                     cXe mXnXvX8 6 5 4 4 # # # 2 2 2 5 6 4 5 5 5 5 6 7 e aXsX    sXpXrXwXiXeXpXwX5 2 2 rX",
"uX2 , eXkXyXkXyXyXsXhX                                    cXcXw MXq 0 $ bX7 7 6 6 5 5 4 # 6 L.sXsXsX    cXpXtXtXiXwXpXqX# , , tX",
"iX2 , eXkXuXtXqXeXpX        q 0 e hXhX                                            pXkXL.sXaX              yXwXwXyXeXiXqX# , , rX",
"iX2 , wXkXyXpXyXtXaX      L.4 1 # 5 8 q   cXL.MX  hX    cX                        kXsXkXsXsXcXsXsXcXcXsX  pXtXtXuXeXpXwX# , , tX",
"iX2 , eXsXyXkXuXuXaX    cXL.4 2 : : : < 8 bX6 6 MXw cXmX8 cXhXcXe cXcXcXcXcXcX  sXsX  sXsX    sXsX        iXiXpXpXeXpXwX# , , wX",
"yX2 , eXsXyXuXqXqXuX    cX  sXaX$ 7 7 # 7 4 # 2 4 q MXq nXvXnXnXq 4 1 1 # 5 MXcXcXkXsXsXsXcXcXcX          iXeXrXiXeXpXwX# , , eX",
"iX2 , rXsXyXyXrXyXkXsXcX  hX  cXcXcXcXtX# < 1 < , 8 e L.cXyXvXcXcXMXe   e mX2 nXsX  sXsXcX        cX  sXcXkXuXrXyXwXpXwX# , , eX",
"uX2 , rXsXuXkXiXuXuXaXpXpXiXpXuXpXuXuXiXiXuXuXiXiXuXuXuXyXyXyXyXyXyXyXyXyXyXyXyXyXyXyXuXyXyXyXyXyXuXyXuXiXyXpXpXiXwXpXqX# , , eX",
"iXrXrXeXsXuXkXtXwXrXaXiXaXiXpXsXsXsXsXsXsXsXsXsXsXkXkXkXkXkXkXkXkXaXkXaXaXaXpXpXpXpXpXpXpXpXpXpXuXpXuXpXpXwXwXyXiXwXpXqXtXeXrXeX",
"uXyXyXeXsXyXiXqX9XrXuXqXuXtXyXyXyXyXyXyXyXtXtXtXrXtXtXtXyXyXtXtXtXtXrXrXrXtXtXrXtXtXrXrXrXtXtXyXrXyXyXeXaXrXqXeXuXwXpXwXyXyXuXrX",
"uX2 2 eXsXyXyXwXwXyXtXqXiXtXrXtXeXwXwXeXwXqXqXwXeXwXeXrXeXeXwXwXqXqXqXwXwXeXeXeX0X9XqXqX9X8X8XeXrXyXuXqXuXiXtXqXrXeXpXeX5 2 2 tX",
"uX2 , rXsXyXuXtXuXaXtXtXaXuXtXkXaXpXpXpXpXpXpXpXpXpXpXpXpXiXiXuXuXuXuXiXiXpXpXiXuXuXiXuXyXuXuXpXtXtXpXtXyXpXpXtXyXeXpXeX# , , tX",
"uX2 , tXsXyXaXaXaXaXpXpXpXpXiXpXpXpXpXpXpXpXpXpXpXpXiXiXiXuXuXiXiXuXuXuXuXuXuXyXuXuXuXyXyXyXyXyXyXyXyXyXyXyXyXyXyXqXpXwX# , , rX",
"iX2 , rXsXaXpXkXaXpXpXpXpXpXpXiXpXpXpXpXiXpXpXiXiXiXuXuXuXuXuXyXyXuXuXuXyXuXyXyXyXyXyXyXyXtXtXyXtXyXyXrXtXtXtXrXrXtXpXwX# , , tX",
"uX2 , rXaXaXkXkXkXkXkXaXaXaXaXpXpXpXaXaXaXaXaXpXpXpXpXpXuXiXpXpXpXpXpXpXiXiXiXuXyXuXiXiXuXiXuXuXuXiXiXpXpXiXpXiXiXuXuXwX# , , tX",
"iX2 , , # # # # # # # # # # # # # # # # tXiX5 # # # # # # # # # # # # # # # # # # # tXiX5 # # # # # # # # # # # # # # # # , , tX",
"uX2 , , , , , , , , , , , , , , , , , , tXuX2 , , , , , , , , , , , , , , , , , , , tXuX2 , , , , , , , , , , , , , , , , , , tX",
"iX2 , , , , , , , , , , , , , , , , , , tXiX2 , , , , , , , , , , , , , , , , , , , tXiX2 , , , , , , , , , , , , , , , , , , tX",
"uXuXpXuXrXtXrXtXeXrXrXeXrXeXwXyXtXyXpXuXtXyXeXeXtXrXeXrXtXtXrXuXtXiXpXuXyXtXrXtXrXtXtXyXrXeXeXuXtXuXpXuXtXtXtXrXrXtXrXrXrX0XeXyX",
"uXtXeXqXwXrXeXeX0XwXwXwXwXeXrXyXtXtXtXrXrXwXqXeXrXrXqXeXeXrXyXuXtXuXyXrXrXrXeXeXeXrXtXwXeXeXtXuXtXyXrXrXeXrXeXeXqXeXwXeXeXwXrXuX",
"iXiXiXiXiXiXiXiXiXiXiXiXiXiXiXiXiXiXiXiXiXiXiXiXiXiXiXiXiXiXiXiXiXiXiXiXiXiXiXiXiXiXiXiXiXiXiXiXiXiXiXiXiXiXiXiXiXiXiXiXiXiXiXiX"
};
